<svg xmlns="http://www.w3.org/2000/svg" viewBox="0 0 300 200" role="img" aria-labelledby="mark-title mark-desc">
  <title id="mark-title">Σήμα MediRadar</title>
  <desc id="mark-desc">Πεταλούδα με αριστερή φτερούγα σε μορφή χαπιού και δεξιά φτερούγα ραντάρ</desc>
  <style>
    .wing {
      transition: transform 0.4s ease;
      transform-origin: center;
    }
    svg:hover .left-wing,
    svg:active .left-wing {
      transform: rotate(-5deg);
    }
    svg:hover .right-wing,
    svg:active .right-wing {
      transform: rotate(5deg);
    }
    @media (prefers-reduced-motion: reduce) {
      .wing {
        transition: none;
        transform: none !important;
      }
    }
  </style>

  <g class="wing left-wing">
    <path d="M80 100 C60 60, 60 140, 80 100" fill="#4A90E2" stroke="#1A2A4F" stroke-width="4"/>
    <path d="M80 100 C100 140, 100 60, 80 100" fill="#C0C0C0" stroke="#1A2A4F" stroke-width="4"/>
    <circle cx="75" cy="85" r="4" fill="#1A2A4F"/>
    <circle cx="85" cy="85" r="4" fill="#1A2A4F"/>
    <path d="M75 95 Q80 100, 85 95" stroke="#1A2A4F" stroke-width="2" fill="none"/>
  </g>

  <g class="wing right-wing">
    <path d="M220 100 C240 60, 240 140, 220 100" fill="#A0E57A" stroke="#1A2A4F" stroke-width="4"/>
    <path d="M220 100 C200 140, 200 60, 220 100" fill="#FFFFFF" stroke="#1A2A4F" stroke-width="4"/>
    <circle cx="220" cy="100" r="8" stroke="#1A2A4F" stroke-width="2" fill="none"/>
    <circle cx="220" cy="100" r="16" stroke="#1A2A4F" stroke-width="2" fill="none"/>
    <circle cx="220" cy="100" r="24" stroke="#1A2A4F" stroke-width="2" fill="none"/>
    <circle cx="220" cy="76" r="4" fill="#1A2A4F"/>
    <circle cx="240" cy="100" r="4" fill="#1A2A4F"/>
    <circle cx="220" cy="124" r="4" fill="#1A2A4F"/>
  </g>
</svg>
